HIERARCHY
ROOT Hips
{
	OFFSET 0.000000 0.000000 0.000000
	CHANNELS 6 Xposition Yposition Zposition Xrotation Yrotation Zrotation
	JOINT LeftUpLeg_virtual
	{
		OFFSET 0.000000 0.000000 0.000000
		CHANNELS 3 Xrotation Yrotation Zrotation
		JOINT LeftUpLeg
		{
			OFFSET 13.026900 -6.336304 -1.092800
			CHANNELS 3 Xrotation Yrotation Zrotation
			JOINT LeftLeg
			{
				OFFSET 0.524474 -46.096886 9.782700
				CHANNELS 3 Xrotation Yrotation Zrotation
				JOINT LeftFoot
				{
					OFFSET -0.524474 -53.427422 -12.948200
					CHANNELS 3 Xrotation Yrotation Zrotation
					JOINT LeftToeBase
					{
						OFFSET 0.192200 -14.009700 16.364100
						CHANNELS 3 Xrotation Yrotation Zrotation
						JOINT LeftToe_End
						{
							OFFSET -1.784700 -0.561700 9.474800
							CHANNELS 3 Xrotation Yrotation Zrotation
							End Site
							{
								OFFSET 0 0 0
							}
						}
					}
				}
			}
		}
	}
	JOINT RightUpLeg_virtual
	{
		OFFSET 0.000000 0.000000 0.000000
		CHANNELS 3 Xrotation Yrotation Zrotation
		JOINT RightUpLeg
		{
			OFFSET -12.883000 -6.336304 -1.092800
			CHANNELS 3 Xrotation Yrotation Zrotation
			JOINT RightLeg
			{
				OFFSET -0.524587 -46.096825 9.782800
				CHANNELS 3 Xrotation Yrotation Zrotation
				JOINT RightFoot
				{
					OFFSET 0.524587 -53.427383 -12.948300
					CHANNELS 3 Xrotation Yrotation Zrotation
					JOINT RightToeBase
					{
						OFFSET -0.192200 -14.009700 16.364100
						CHANNELS 3 Xrotation Yrotation Zrotation
						JOINT RightToe_End
						{
							OFFSET 1.784700 -0.561700 9.474800
							CHANNELS 3 Xrotation Yrotation Zrotation
							End Site
							{
								OFFSET 0 0 0
							}
						}
					}
				}
			}
		}
	}
	JOINT Spine_virtual
	{
		OFFSET 0.000000 0.000000 0.000000
		CHANNELS 3 Xrotation Yrotation Zrotation
		JOINT Spine
		{
			OFFSET 0.072000 7.257294 -0.789700
			CHANNELS 3 Xrotation Yrotation Zrotation
			JOINT Spine1
			{
				OFFSET 0.000000 12.508769 -0.658067
				CHANNELS 3 Xrotation Yrotation Zrotation
				JOINT Spine1_split
				{
					OFFSET 0.000000 12.508769 -0.658067
					CHANNELS 3 Xrotation Yrotation Zrotation
					JOINT Spine2
					{
						OFFSET 0.000000 12.508769 -0.658067
						CHANNELS 3 Xrotation Yrotation Zrotation
						JOINT Neck_virtual
						{
							OFFSET 0.000000 0.000000 0.000000
							CHANNELS 3 Xrotation Yrotation Zrotation
							JOINT Neck
							{
								OFFSET 0.000000 14.033295 7.520400
								CHANNELS 3 Xrotation Yrotation Zrotation
								JOINT Head
								{
									OFFSET 0.000000 8.198502 5.703100
									CHANNELS 3 Xrotation Yrotation Zrotation
									JOINT HeadTop_End
									{
										OFFSET 0.000000 17.760803 13.332701
										CHANNELS 3 Xrotation Yrotation Zrotation
										End Site
										{
											OFFSET 0 0 0
										}
									}
								}
							}
						}
						JOINT LeftShoulder_virtual
						{
							OFFSET 0.000000 0.000000 0.000000
							CHANNELS 3 Xrotation Yrotation Zrotation
							JOINT LeftShoulder
							{
								OFFSET 6.292450 5.785301 -0.669000
								CHANNELS 3 Xrotation Yrotation Zrotation
								JOINT LeftShoulder_split
								{
									OFFSET 6.292450 5.785301 -0.669000
									CHANNELS 3 Xrotation Yrotation Zrotation
									JOINT LeftArm
									{
										OFFSET 13.907140 -6.093903 1.965100
										CHANNELS 3 Xrotation Yrotation Zrotation
										JOINT LeftForeArm
										{
											OFFSET 34.140198 0.000000 0.000000
											CHANNELS 3 Xrotation Yrotation Zrotation
											JOINT LeftHand
											{
												OFFSET 40.960209 0.000000 0.000000
												CHANNELS 3 Xrotation Yrotation Zrotation
												End Site
												{
													OFFSET 0 0 0
												}
											}
										}
									}
								}
							}
						}
						JOINT RightShoulder_virtual
						{
							OFFSET 0.000000 0.000000 0.000000
							CHANNELS 3 Xrotation Yrotation Zrotation
							JOINT RightShoulder
							{
								OFFSET -6.292450 5.785301 -0.669000
								CHANNELS 3 Xrotation Yrotation Zrotation
								JOINT RightShoulder_split
								{
									OFFSET -6.292450 5.785301 -0.669000
									CHANNELS 3 Xrotation Yrotation Zrotation
									JOINT RightArm
									{
										OFFSET -13.907140 -6.093903 1.965100
										CHANNELS 3 Xrotation Yrotation Zrotation
										JOINT RightForeArm
										{
											OFFSET -34.140198 0.000000 0.000000
											CHANNELS 3 Xrotation Yrotation Zrotation
											JOINT RightHand
											{
												OFFSET -40.960209 0.000000 0.000000
												CHANNELS 3 Xrotation Yrotation Zrotation
												End Site
												{
													OFFSET 0 0 0
												}
											}
										}
									}
								}
							}
						}
					}
				}
			}
		}
	}
}
MOTION
Frames: 6
Frame Time: 0.03333333
-6.664225 100.725487 94.513878 0.000000 0.000000 0.000000 25.476358 18.609547 -5.565008 -36.694047 2.940107 -8.457573 37.148409 3.952041 2.327184 -20.611598 -4.467058 11.452906 4.768862 0.010006 -1.401152 0.000000 0.000000 0.000000 25.086858 19.569863 -5.574573 -63.391150 1.425570 -15.866558 57.327929 -1.341423 2.278158 8.448482 -6.858370 16.188312 2.207345 5.569168 -10.033881 0.000000 0.000000 0.000000 24.165833 27.534625 -8.151797 6.819816 -3.996508 -0.806833 1.750891 0.725477 -1.492312 0.142389 -0.299699 0.115907 0.000000 0.000000 0.000000 3.016828 3.056772 -0.897312 -19.557311 12.602629 5.246569 -26.571302 -5.774189 1.750319 0.000000 0.000000 0.000000 0.135125 2.412001 -1.792125 0.945804 3.172308 -16.749237 0.030063 -0.550055 -1.117985 4.708233 3.692060 -46.235787 -2.665146 -61.799033 -4.522670 0.000000 0.000000 0.000000 3.385510 2.429856 -1.698025 -5.049540 3.050685 15.969933 -1.084850 -0.781186 2.651016 15.614764 -16.822505 47.089220 -3.641332 65.701652 6.073721 0.000000 0.000000 0.000000 
-6.297551 101.042137 103.657837 0.000000 0.000000 0.000000 25.842663 20.687736 -6.252149 -30.433834 1.912975 -7.651996 33.474009 4.190699 2.274180 -22.310186 -4.413232 10.882059 2.665733 -0.171210 -1.648638 0.000000 0.000000 0.000000 26.196065 21.470944 -6.636506 -65.753651 3.605931 -13.702970 52.456047 -5.351761 2.707033 7.368260 -8.424290 15.709357 3.227107 5.187628 -8.854048 0.000000 0.000000 0.000000 24.333789 29.801819 -8.539037 6.302712 -4.654379 -0.916473 2.252277 0.500142 -1.498377 0.178465 -0.169660 0.119055 0.000000 0.000000 0.000000 3.435363 2.944863 -0.917502 -19.612130 12.540069 5.971756 -26.678253 -5.125993 1.218844 0.000000 0.000000 0.000000 0.537446 2.285035 -1.810357 1.157218 3.518750 -17.117670 -0.333172 -1.342646 -1.331528 4.090385 2.607368 -46.245575 -2.157955 -60.602001 -3.873189 0.000000 0.000000 0.000000 3.722824 2.275827 -1.744963 -4.694807 3.044154 16.032213 -1.150996 -0.481311 2.446131 15.511848 -17.312282 47.656159 -2.764746 65.576756 5.037714 0.000000 0.000000 0.000000 
-5.750064 100.567413 112.586685 0.000000 0.000000 0.000000 25.594802 22.251471 -6.663763 -25.716023 1.202778 -5.847560 32.435585 1.909608 2.167296 -22.943592 -5.067486 7.833041 1.158386 -0.386683 -1.413079 0.000000 0.000000 0.000000 26.772509 23.570915 -7.695020 -66.940416 4.397886 -12.008176 47.644777 -8.786372 2.708909 5.383012 -9.481459 16.381121 2.401549 4.830679 -7.781874 0.000000 0.000000 0.000000 24.159810 31.843066 -8.678863 6.095622 -5.374729 -1.068238 2.729493 0.294671 -1.469275 0.178894 -0.022754 0.096159 0.000000 0.000000 0.000000 3.813042 2.830332 -0.928506 -19.920110 12.367424 6.860350 -27.222691 -4.538281 0.562522 0.000000 0.000000 0.000000 0.987873 2.173061 -1.789620 1.343159 3.623400 -17.431640 -0.372973 -1.966726 -1.464160 3.501282 1.916828 -46.307453 -1.049020 -59.993322 -2.739948 0.000000 0.000000 0.000000 4.084605 2.136679 -1.735008 -4.375918 2.709685 15.746345 -1.331934 -0.371261 2.270864 15.417533 -17.460381 48.226224 -1.890828 65.509704 4.080505 0.000000 0.000000 0.000000 
-5.229797 99.714600 121.000336 0.000000 0.000000 0.000000 25.318695 23.682431 -7.040571 -21.180401 1.111101 -4.060456 32.524200 -1.007607 1.808023 -24.658501 -5.858269 4.901075 1.275352 -0.776710 -0.941761 0.000000 0.000000 0.000000 26.696027 25.979087 -8.548684 -68.403634 4.816606 -11.001379 43.999682 -10.374434 2.255605 3.988867 -9.238708 18.941626 2.090505 4.403826 -7.040135 0.000000 0.000000 0.000000 23.974927 33.405513 -8.711631 6.084298 -6.127498 -1.126907 3.095753 0.095268 -1.381233 0.155713 0.165690 0.080760 0.000000 0.000000 0.000000 4.111693 2.693005 -0.881234 -20.376271 12.245568 7.554902 -28.127086 -3.931077 -0.258467 0.000000 0.000000 0.000000 1.437369 2.035074 -1.687592 1.487264 3.486835 -17.648980 -0.246898 -2.401119 -1.528252 3.102652 1.748277 -46.496892 0.647954 -59.615646 -1.129960 0.000000 0.000000 0.000000 4.452314 1.998712 -1.643536 -4.128880 1.986078 15.062008 -1.559550 -0.248108 2.244061 15.141329 -17.062697 48.756315 -1.075738 65.353203 3.212689 0.000000 0.000000 0.000000 
-4.722023 98.386948 128.852783 0.000000 0.000000 0.000000 25.261841 25.401882 -7.662490 -16.226209 1.821021 -2.711693 32.284002 -2.543020 0.950655 -28.797976 -6.449746 4.177177 1.899156 -1.380720 -0.441857 0.000000 0.000000 0.000000 26.235211 27.913066 -9.093751 -70.288493 5.129915 -10.325782 41.485876 -10.350914 1.661393 2.587483 -8.046243 21.906862 2.712581 4.045757 -6.911210 0.000000 0.000000 0.000000 23.751416 34.677676 -8.783754 6.144609 -6.876054 -0.993640 3.293326 -0.140843 -1.228182 0.135935 0.249124 0.031292 0.000000 0.000000 0.000000 4.336171 2.491225 -0.747787 -20.862799 12.299090 7.759109 -29.091756 -3.336028 -1.254255 0.000000 0.000000 0.000000 1.841683 1.832840 -1.498476 1.567239 3.123726 -17.796635 -0.019312 -2.533896 -1.554896 2.850602 2.162782 -46.894453 2.698285 -59.192250 0.733667 0.000000 0.000000 0.000000 4.785154 1.819138 -1.460053 -3.987706 0.904237 14.053792 -1.709726 -0.036576 2.258788 14.691045 -16.043261 49.319717 -0.402677 65.092126 2.468672 0.000000 0.000000 0.000000 
-4.251113 96.910072 136.462479 0.000000 0.000000 0.000000 25.572781 26.931603 -8.523050 -12.119658 2.982232 -1.330201 32.318983 -2.978709 -0.215279 -32.722965 -6.808126 4.098228 0.920122 -2.133442 -0.207577 0.000000 0.000000 0.000000 25.687925 29.301115 -9.585916 -71.491160 4.959811 -9.723480 39.756380 -9.514970 1.251586 0.235615 -6.842179 23.432950 3.539306 3.848981 -7.337081 0.000000 0.000000 0.000000 23.640343 35.633281 -9.109831 6.216376 -7.571348 -0.615947 3.305233 -0.447673 -1.006734 0.143870 0.239529 -0.016301 0.000000 0.000000 0.000000 4.488062 2.192592 -0.524362 -21.282364 12.526816 7.325611 -29.784389 -2.608463 -2.373268 0.000000 0.000000 0.000000 2.172206 1.534868 -1.225029 1.580671 2.600743 -17.900498 0.285148 -2.256875 -1.539000 2.700921 3.062260 -47.543656 4.721473 -58.653867 2.531411 0.000000 0.000000 0.000000 5.083370 1.563183 -1.189453 -3.946287 -0.530664 12.850302 -1.932035 0.318527 2.329485 14.120194 -14.514239 49.852253 0.115560 64.797834 1.841125 0.000000 0.000000 0.000000 
